<?xml version="1.0" encoding="iso-8859-1"?>
<!-- Generator: Adobe Illustrator 19.0.0, SVG Export Plug-In . SVG Version: 6.00 Build 0)  -->
<svg version="1.1" id="Layer_1" xmlns="http://www.w3.org/2000/svg" xmlns:xlink="http://www.w3.org/1999/xlink" x="0px" y="0px"
	 viewBox="0 0 512 512" style="enable-background:new 0 0 512 512;" xml:space="preserve">
<path style="fill:#81BC82;" d="M361.306,191.867l-96.228,96.228H51.2v-90.997L208.868,39.43c8.419-8.419,22.069-8.419,30.487,0
	l121.95,121.95C369.724,169.799,369.724,183.449,361.306,191.867z"/>
<path style="fill:#699E69;" d="M307.952,184.245l-103.85,103.85H56.589v-35.412l159.9-159.899c4.209-4.209,11.034-4.209,15.244,0
	l76.219,76.219C312.162,173.212,312.162,180.036,307.952,184.245z"/>
<path style="fill:#ACE5AC;" d="M104.159,288.096L327.436,64.819c8.418-8.418,22.069-8.418,30.487,0l121.95,121.95
	c8.419,8.418,8.419,22.069,0,30.487l-70.84,70.84H104.159z"/>
<path style="fill:#81BC82;" d="M426.521,209.634l-78.462,78.462H165.135l169.925-169.925c4.209-4.209,11.034-4.209,15.244,0
	l76.219,76.219C430.73,198.599,430.73,205.425,426.521,209.634z"/>
<path style="fill:#FEAF50;" d="M503.916,230.967v204.8c0,23.812-19.304,43.116-43.116,43.116H72.758
	c-23.812,0-43.116-19.304-43.116-43.116v-204.8c0-23.812,19.304-43.116,43.116-43.116H460.8
	C484.612,187.852,503.916,207.155,503.916,230.967z"/>
<path style="fill:#FE9443;" d="M503.916,281.325v154.442c0,23.812-19.304,43.116-43.116,43.116H72.758
	c-23.812,0-43.116-19.304-43.116-43.116V281.325H503.916z"/>
<path style="fill:#DD6400;" d="M126.653,446.546L126.653,446.546c0,17.86-14.477,32.337-32.337,32.337H18.863
	c-5.953,0-10.779-4.826-10.779-10.779v-43.116c0-5.953,4.826-10.779,10.779-10.779h75.453
	C112.175,414.21,126.653,428.687,126.653,446.546z"/>
<path style="fill:#A62C18;" d="M124.805,457.325c-4.44,12.559-16.411,21.558-30.489,21.558H18.863
	c-5.953,0-10.779-4.826-10.779-10.779v-10.779H124.805z"/>
<path style="fill:#FEF184;" d="M353.01,371.094h86.232c5.953,0,10.779,4.826,10.779,10.779v32.337
	c0,5.953-4.826,10.779-10.779,10.779H353.01c-5.953,0-10.779-4.826-10.779-10.779v-32.337
	C342.232,375.92,347.057,371.094,353.01,371.094z"/>
<path d="M94.259,406.678H18.881C8.47,406.678,0,415.148,0,425.561v43.304c0,10.411,8.47,18.883,18.883,18.883H94.26
	c22.32,0,40.478-18.158,40.478-40.478v-0.112C134.737,424.837,116.579,406.678,94.259,406.678z M118.568,447.269
	c0,13.405-10.905,24.31-24.31,24.31H18.881c-1.497,0-2.714-1.218-2.714-2.714V425.56c0-1.497,1.217-2.714,2.714-2.714h75.377
	c13.405,0,24.31,10.905,24.31,24.31V447.269z M439.223,433.663c10.411,0,18.883-8.47,18.883-18.883v-32.488
	c0-10.411-8.47-18.883-18.883-18.883h-86.194c-10.411,0-18.883,8.47-18.883,18.883v32.488c0,10.411,8.47,18.883,18.883,18.883
	H439.223z M350.316,414.782v-32.488c0-1.497,1.217-2.714,2.714-2.714h86.194c1.497,0,2.714,1.217,2.714,2.714v32.488
	c0,1.497-1.217,2.714-2.714,2.714H353.03C351.533,417.495,350.316,416.278,350.316,414.782z M512,230.879v205.517
	c0,28.315-22.969,51.351-51.2,51.351H148.211c-4.466,0-8.084-3.618-8.084-8.084s3.618-8.084,8.084-8.084H460.8
	c19.317,0,35.032-15.784,35.032-35.182V230.879c0-19.4-15.715-35.182-35.032-35.182H204.404h-0.001c-0.001,0-0.001,0-0.001,0
	h-82.978h-0.001c-0.001,0-0.001,0-0.001,0H72.758c-19.317,0-35.032,15.783-35.032,35.182v155.938c0,4.466-3.618,8.084-8.084,8.084
	s-8.084-3.618-8.084-8.084V230.879c0-21.378,13.092-39.746,31.659-47.464L203.142,32.966c5.6-5.619,13.047-8.714,20.97-8.714
	c7.923,0,15.37,3.095,20.969,8.714l38.163,38.297c3.152,3.163,3.143,8.281-0.02,11.432c-3.164,3.153-8.283,3.143-11.432-0.02
	l-38.163-38.297c-2.543-2.551-5.923-3.958-9.517-3.958c-3.595,0-6.975,1.407-9.518,3.958L79.916,179.529h38.15l92.699-93.023
	c3.562-3.575,8.302-5.546,13.346-5.547c5.045,0,9.785,1.969,13.35,5.547l14.215,14.265c3.152,3.163,3.143,8.281-0.02,11.432
	c-3.165,3.152-8.281,3.143-11.432-0.02l-14.215-14.265c-0.686-0.688-1.482-0.79-1.896-0.79c-0.414,0-1.209,0.103-1.894,0.789
	l-81.327,81.612h60.156L321.711,58.443c5.6-5.619,13.047-8.714,20.97-8.714c7.923,0,15.37,3.095,20.969,8.714l95.886,96.224
	c3.152,3.163,3.143,8.281-0.02,11.432c-3.165,3.152-8.284,3.142-11.432-0.02l-95.886-96.224c-2.543-2.551-5.923-3.958-9.517-3.958
	c-3.595,0-6.975,1.407-9.518,3.958L223.871,179.529h38.15l67.311-67.546c3.562-3.575,8.302-5.546,13.346-5.547
	c5.045,0,9.785,1.969,13.35,5.547l44.453,44.61c3.152,3.163,3.143,8.281-0.021,11.432c-3.164,3.151-8.283,3.142-11.432-0.02
	l-44.453-44.61c-0.686-0.688-1.482-0.79-1.896-0.79s-1.209,0.103-1.894,0.789l-55.94,56.135H460.8
	C489.031,179.529,512,202.565,512,230.879z"/>
<g>
</g>
<g>
</g>
<g>
</g>
<g>
</g>
<g>
</g>
<g>
</g>
<g>
</g>
<g>
</g>
<g>
</g>
<g>
</g>
<g>
</g>
<g>
</g>
<g>
</g>
<g>
</g>
<g>
</g>
</svg>
